<svg width="364" height="364" viewBox="0 0 364 364" fill="none" xmlns="http://www.w3.org/2000/svg">
<path d="M273 91H197.167C197.167 65.2167 177.45 45.5 151.667 45.5H91C81.9 45.5 75.8333 39.4333 75.8333 30.3333C75.8333 21.2333 81.9 15.1667 91 15.1667H295.75C300.3 15.1667 303.333 12.1333 303.333 7.58333C303.333 3.03333 300.3 0 295.75 0H91C74.3167 0 60.6667 13.65 60.6667 30.3333C60.6667 47.0167 74.3167 60.6667 91 60.6667H151.667C168.35 60.6667 182 74.3167 182 91H91C40.95 91 0 131.95 0 182V303.333C0 336.7 27.3 364 60.6667 364C77.35 364 92.5167 357.933 103.133 345.8L172.9 274.517C175.933 273 177.45 271.483 180.483 271.483C183.517 271.483 186.55 273 188.067 274.517L257.833 345.8C268.45 356.417 283.617 364 300.3 364C333.667 364 360.967 336.7 360.967 303.333V182C364 131.95 323.05 91 273 91ZM333.667 303.333C333.667 320.017 320.017 333.667 303.333 333.667C294.233 333.667 286.65 330.633 282.1 324.567L213.85 256.317C213.85 256.317 200.2 242.667 182 242.667C163.8 242.667 150.15 256.317 150.15 256.317L81.9 324.567C77.35 330.633 69.7667 333.667 60.6667 333.667C43.9833 333.667 30.3333 320.017 30.3333 303.333V182C30.3333 148.633 57.6333 121.333 91 121.333H273C306.367 121.333 333.667 148.633 333.667 182V303.333Z" fill="white"/>
<path d="M257.833 242.667C266.21 242.667 273 235.876 273 227.5C273 219.124 266.21 212.333 257.833 212.333C249.457 212.333 242.667 219.124 242.667 227.5C242.667 235.876 249.457 242.667 257.833 242.667Z" fill="white"/>
<path d="M257.833 182C266.21 182 273 175.21 273 166.833C273 158.457 266.21 151.667 257.833 151.667C249.457 151.667 242.667 158.457 242.667 166.833C242.667 175.21 249.457 182 257.833 182Z" fill="white"/>
<path d="M227.5 212.333C235.876 212.333 242.667 205.543 242.667 197.167C242.667 188.79 235.876 182 227.5 182C219.124 182 212.333 188.79 212.333 197.167C212.333 205.543 219.124 212.333 227.5 212.333Z" fill="white"/>
<path d="M288.167 212.333C296.543 212.333 303.333 205.543 303.333 197.167C303.333 188.79 296.543 182 288.167 182C279.79 182 273 188.79 273 197.167C273 205.543 279.79 212.333 288.167 212.333Z" fill="white"/>
<path d="M136.5 182H121.333V166.833C121.333 157.733 115.267 151.667 106.167 151.667C97.0666 151.667 91 157.733 91 166.833V182H75.8333C66.7333 182 60.6666 188.067 60.6666 197.167C60.6666 206.267 66.7333 212.333 75.8333 212.333H91V227.5C91 236.6 97.0666 242.667 106.167 242.667C115.267 242.667 121.333 236.6 121.333 227.5V212.333H136.5C145.6 212.333 151.667 206.267 151.667 197.167C151.667 188.067 145.6 182 136.5 182Z" fill="white"/>
</svg>
