<svg width="146" height="146" viewBox="0 0 146 146" fill="none" xmlns="http://www.w3.org/2000/svg">
<g clip-path="url(#clip0_105_885)">
<path d="M73 132.313C61.2691 132.313 49.8017 128.834 40.0478 122.317C30.2939 115.799 22.6916 106.536 18.2024 95.6979C13.7132 84.86 12.5386 72.9342 14.8272 61.4287C17.1158 49.9232 22.7648 39.3548 31.0598 31.0598C39.3548 22.7648 49.9232 17.1158 61.4287 14.8272C72.9342 12.5386 84.86 13.7132 95.6979 18.2024C106.536 22.6916 115.799 30.2939 122.317 40.0478C128.834 49.8017 132.313 61.2691 132.313 73C132.313 88.7307 126.064 103.817 114.94 114.94C103.817 126.064 88.7307 132.313 73 132.313ZM73 22.8125C63.0739 22.8125 53.3706 25.756 45.1173 31.2706C36.8641 36.7853 30.4314 44.6235 26.6328 53.7941C22.8342 62.9647 21.8404 73.0557 23.7769 82.7911C25.7134 92.5265 30.4933 101.469 37.5121 108.488C44.531 115.507 53.4735 120.287 63.2089 122.223C72.9444 124.16 83.0354 123.166 92.206 119.367C101.377 115.569 109.215 109.136 114.729 100.883C120.244 92.6294 123.188 82.9262 123.188 73C123.188 59.6895 117.9 46.9241 108.488 37.5121C99.076 28.1001 86.3106 22.8125 73 22.8125Z" fill="white"/>
<path d="M73 104.938C71.7899 104.938 70.6295 104.457 69.7738 103.601C68.9182 102.746 68.4375 101.585 68.4375 100.375V45.625C68.4375 44.4149 68.9182 43.2545 69.7738 42.3988C70.6295 41.5432 71.7899 41.0625 73 41.0625C74.2101 41.0625 75.3705 41.5432 76.2262 42.3988C77.0818 43.2545 77.5625 44.4149 77.5625 45.625V100.375C77.5625 101.585 77.0818 102.746 76.2262 103.601C75.3705 104.457 74.2101 104.938 73 104.938Z" fill="white"/>
<path d="M100.375 77.5625H45.625C44.4149 77.5625 43.2545 77.0818 42.3988 76.2262C41.5432 75.3705 41.0625 74.2101 41.0625 73C41.0625 71.7899 41.5432 70.6295 42.3988 69.7738C43.2545 68.9182 44.4149 68.4375 45.625 68.4375H100.375C101.585 68.4375 102.746 68.9182 103.601 69.7738C104.457 70.6295 104.938 71.7899 104.938 73C104.938 74.2101 104.457 75.3705 103.601 76.2262C102.746 77.0818 101.585 77.5625 100.375 77.5625Z" fill="white"/>
</g>
<defs>
<clipPath id="clip0_105_885">
<rect width="146" height="146" fill="white"/>
</clipPath>
</defs>
</svg>
